<svg xmlns="http://www.w3.org/2000/svg" width="35" height="35" viewBox="0 0 35 35"><defs><style>.a{fill:#3fca8e;}.b{fill:#fff;}</style></defs><g transform="translate(-1495 -33)"><circle class="a" cx="17.5" cy="17.5" r="17.5" transform="translate(1495 33)"/><path class="b" d="M19.5,2A17.5,17.5,0,1,0,37,19.5,17.506,17.506,0,0,0,19.5,2Zm0,5.25a5.25,5.25,0,1,1-5.25,5.25A5.243,5.243,0,0,1,19.5,7.25Zm0,24.85A12.6,12.6,0,0,1,9,26.465c.052-3.482,7-5.39,10.5-5.39,3.483,0,10.447,1.908,10.5,5.39A12.6,12.6,0,0,1,19.5,32.1Z" transform="translate(1493 31)"/></g></svg>