<svg xmlns="http://www.w3.org/2000/svg" width="258.643" height="64.657" viewBox="0 0 258.643 64.657"><defs><style>.a{fill:#fff;}.b{fill:#388e3c;}.c{fill:#ee3b49;}.d{fill:#fffffc;}</style></defs><g transform="translate(-200 -3788)"><g transform="translate(245.286 3788)"><g transform="translate(0 16.435)"><path class="a" d="M249.677,346.864c.077-.644.155-1.314.232-1.958a17.062,17.062,0,0,1,5.538-10.819,15.523,15.523,0,0,1,7.857-4.07,16.744,16.744,0,0,1,5.667-.026,21.589,21.589,0,0,0,3.4.258,18.021,18.021,0,0,0,5.229-.7c.876-.258,1.726-.618,2.6-.953a7.4,7.4,0,0,1-.361,3.5,20.7,20.7,0,0,1-1.34,2.6c-.155.283-.206.438,0,.7a17.727,17.727,0,0,1,4.225,8.913c1.262,7.367-2.138,15.713-9.479,19.191a15.078,15.078,0,0,1-5.976,1.52,2.441,2.441,0,0,0-.593.129h-1.03a6.6,6.6,0,0,0-.7-.129c-.7-.1-1.417-.129-2.112-.283a15.5,15.5,0,0,1-8.475-4.946,17.257,17.257,0,0,1-4.637-11.025c-.026-.309-.077-.644-.129-.953A4.081,4.081,0,0,0,249.677,346.864Zm8.295.567c.129.979.206,1.958.412,2.911a8.036,8.036,0,0,0,6.981,6.44,7.881,7.881,0,0,0,8.166-4.353,11.041,11.041,0,0,0,1-7.084,8.286,8.286,0,0,0-7.367-7.238,7.882,7.882,0,0,0-7.058,2.988A9.874,9.874,0,0,0,257.972,347.43Z" transform="translate(-249.6 -324.71)"/><path class="a" d="M474.39,368.323c-.541-.077-1.056-.155-1.6-.258a10.416,10.416,0,0,1-8.733-8.552,22.488,22.488,0,0,1-.335-3.967c-.026-7.342-.026-14.657-.026-22,0-.747,0-.747.773-.747h6.517c.515,0,.644.155.644.67-.026,5.152-.052,10.278.026,15.43a36.142,36.142,0,0,0,.49,7.084,5.081,5.081,0,0,0,4.25,4.353,5.939,5.939,0,0,0,5.564-2.035,9.269,9.269,0,0,0,2.318-5.667c.155-2.5.206-5.023.232-7.548q.039-5.8,0-11.592c0-.541.155-.7.7-.7,2.241.026,4.482,0,6.723,0,.7,0,.7,0,.7.7v27.46a24.321,24.321,0,0,0,.85,6.826c.026.1.026.206.052.412-.644-.1-1.262-.155-1.855-.283a10.607,10.607,0,0,1-5.8-3.168,1.469,1.469,0,0,0-1.777-.412,5.153,5.153,0,0,0-1.262.721,13.547,13.547,0,0,1-6.492,2.988c-.438.052-.9.129-1.34.206A1.7,1.7,0,0,1,474.39,368.323Z" transform="translate(-408.548 -327.828)"/><path class="a" d="M401.668,343.33h0c-5.358,1.8-6.775.618-7.135-.18V329.033c0-.1,0-.155.026-.18a.2.2,0,0,1,.129,0H396.9a1.27,1.27,0,0,0,1.185-.618,13.7,13.7,0,0,0,2.215-8.784,1.947,1.947,0,0,0-.077-.412c-.026-.051-.026-.129-.052-.18l-.129-.541-.438.335a8.115,8.115,0,0,1-4.663,1.262,2.2,2.2,0,0,1-.412,0,1.823,1.823,0,0,1-.026-.361v-5.075a.835.835,0,0,0-.953-.979H391.8a.949.949,0,0,0-.7.232.7.7,0,0,0-.206.489,7.5,7.5,0,0,1-6.8,5.693h-.464a1.14,1.14,0,0,0-.386.051h0a.534.534,0,0,0-.258.155.932.932,0,0,0-.206.747,53.8,53.8,0,0,1,0,7.058.842.842,0,0,0,.206.7.954.954,0,0,0,.644.206h2.37v18.727a6.376,6.376,0,0,0,6.363,6.363h2.55a4,4,0,0,0,.593-.129C398.113,353.093,402.569,350.671,401.668,343.33Z" transform="translate(-348.474 -313.5)"/></g><g transform="translate(98.171)"><path class="a" d="M653.6,340.187a7.967,7.967,0,0,0-6.878-2.731,8.29,8.29,0,0,0-7.419,7.264,11.029,11.029,0,0,0,1,7.135,7.933,7.933,0,0,0,8.217,4.379,7.688,7.688,0,0,0,5.615-3.349l5.822,5.822-.464.541a15.565,15.565,0,0,1-8.526,5c-.7.129-1.417.18-2.138.283-.232.026-.464.1-.7.129h-1.03a2.445,2.445,0,0,0-.592-.129,15.322,15.322,0,0,1-6.028-1.52c-7.367-3.5-10.793-11.9-9.531-19.32a17.608,17.608,0,0,1,4.25-8.964c.232-.258.18-.412,0-.7a21.179,21.179,0,0,1-1.365-2.627,8.122,8.122,0,0,1-.361-3.5c.9.335,1.752.7,2.627.953a18.2,18.2,0,0,0,5.255.7,21.916,21.916,0,0,0,3.426-.258,18.508,18.508,0,0,1,5.719.026,15.721,15.721,0,0,1,7.908,4.1c.335.309.644.618.953.953Z" transform="translate(-630.703 -307.756)"/><path class="a" d="M776,284.914a22.9,22.9,0,0,0-.335-3.967,10.471,10.471,0,0,0-8.733-8.552c-.515-.077-1.056-.155-1.571-.232h-.644c-.438.077-.876.129-1.339.206a13.547,13.547,0,0,0-6.491,2.988,6.548,6.548,0,0,1-.9.515.532.532,0,0,1-.773-.49V259.643c.232-3.4-.773-5.616-2.189-7.11A9.811,9.811,0,0,0,748,249.958c-.541-.1-1.108-.155-1.7-.258a2.819,2.819,0,0,0,.051.386,21.916,21.916,0,0,1,.773,6.337v49.33c0,.7,0,.7.7.7,2.241,0,4.482-.026,6.723,0,.541,0,.7-.155.7-.7,0-1.726-.026-3.452-.026-5.178v-2.5c0-1.314,0-2.6.026-3.915.026-2.525.077-3.812.232-6.337a9.423,9.423,0,0,1,2.318-5.667,5.94,5.94,0,0,1,5.564-2.035,5.053,5.053,0,0,1,4.25,4.353,36.282,36.282,0,0,1,.49,7.084c.051,5.152.026,9.067.026,14.219,0,.489.155.67.644.67,2.164-.026,4.328,0,6.517,0,.773,0,.773,0,.773-.747C776,298.36,776.027,292.255,776,284.914Z" transform="translate(-716.523 -249.7)"/><path class="a" d="M902.392,339.276l-.077-.876a14.859,14.859,0,0,1-8.166,2.7,4.56,4.56,0,0,1-1.546-.515c-.309-.129-.567-.258-.773-.335a17.374,17.374,0,0,0-4.044-.927,16.742,16.742,0,0,0-5.332.026,14.949,14.949,0,0,0-7.419,3.838,15.9,15.9,0,0,0-5.2,10.175c-.052.412-.1.824-.155,1.211l-.077.567v.953c.026.1.026.18.051.283l.077.541a16.2,16.2,0,0,0,4.353,10.355,14.548,14.548,0,0,0,7.986,4.663c.438.077.85.129,1.288.18.232.026.464.052.67.077l.386.077c.077.026.129.026.206.052h1.133c.052-.026.129-.026.181-.052a1.485,1.485,0,0,1,.258-.052,14.4,14.4,0,0,0,5.641-1.443c.361-.18.7-.361,1.056-.541h0A2.122,2.122,0,0,0,895,372.351h3.864a2.039,2.039,0,0,0,2.035-2.035v-12.88a16.9,16.9,0,0,0,0-3.606v-8.217a2.438,2.438,0,0,1,.335-1.262,10.459,10.459,0,0,0,.824-1.7A7.715,7.715,0,0,0,902.392,339.276ZM891.8,360.322h0a7.153,7.153,0,0,1-7.445,3.967,7.381,7.381,0,0,1-6.337-5.873c-.129-.618-.206-1.211-.283-1.881-.026-.283-.077-.567-.1-.85a9.17,9.17,0,0,1,1.932-5.8,7.145,7.145,0,0,1,6.44-2.73,7.522,7.522,0,0,1,6.7,6.594A10.007,10.007,0,0,1,891.8,360.322Z" transform="translate(-808.061 -315.551)"/><path class="a" d="M1022.968,342.53h0c-5.358,1.8-6.775.618-7.135-.18V328.233c0-.1,0-.155.026-.18a.2.2,0,0,1,.129,0h2.215a1.27,1.27,0,0,0,1.185-.618,13.7,13.7,0,0,0,2.215-8.784,1.953,1.953,0,0,0-.077-.412c-.026-.052-.026-.129-.052-.18l-.129-.541-.438.335a8.114,8.114,0,0,1-4.663,1.262,2.2,2.2,0,0,1-.412,0,1.825,1.825,0,0,1-.026-.361v-5.075a.835.835,0,0,0-.953-.979H1013.1a.949.949,0,0,0-.7.232.7.7,0,0,0-.206.489,7.5,7.5,0,0,1-6.8,5.693h-.464a1.068,1.068,0,0,0-.386.052h0a.535.535,0,0,0-.258.155.932.932,0,0,0-.206.747,53.784,53.784,0,0,1,0,7.058.842.842,0,0,0,.206.7.954.954,0,0,0,.644.206h2.37v18.727a6.376,6.376,0,0,0,6.363,6.363h2.55a4,4,0,0,0,.593-.129C1019.413,352.319,1023.87,349.9,1022.968,342.53Z" transform="translate(-907.9 -296.471)"/></g></g><g transform="translate(200 3803.07)"><g transform="translate(0 0)"><path class="b" d="M87.636,359.362h-.1l-.824-.052v-.824c0-.386.026-.8.026-1.185.052-2.035.1-3.812-.773-4.714a4.122,4.122,0,0,0-3.04-.876,5.355,5.355,0,0,1-4.972-3.452,9.2,9.2,0,0,1-.85-3.89V311.5h31.659a7.718,7.718,0,0,1,6.517,3.812,12.143,12.143,0,0,1,2.035,6.749v29.649H104.843a22.51,22.51,0,0,0-2.937.206,13.074,13.074,0,0,0-7.058,3.581c-3.735,3.684-6.672,3.864-7.213,3.864" transform="translate(-76.25 -310.65)"/><path class="a" d="M106.309,309.926a6.989,6.989,0,0,1,5.822,3.426,11.319,11.319,0,0,1,1.88,6.285v28.8H102.419a20.479,20.479,0,0,0-3.065.232,13.866,13.866,0,0,0-7.522,3.812c-3.555,3.452-6.26,3.581-6.646,3.581h-.052c.052-4.07.721-7.625-4.663-7.625a4.562,4.562,0,0,1-4.173-2.962,8.38,8.38,0,0,1-.773-3.529V309.926h30.783m0-1.726H73.8v33.745a10.225,10.225,0,0,0,.927,4.276,6.236,6.236,0,0,0,5.744,3.941,3.822,3.822,0,0,1,2.421.592c.618.644.592,2.318.541,4.1,0,.386-.026.773-.026,1.185l-.026,1.623,1.649.129h.155c.85,0,3.941-.283,7.857-4.07a12.191,12.191,0,0,1,6.594-3.349,20.222,20.222,0,0,1,2.782-.206h13.344V319.637A12.9,12.9,0,0,0,113.6,312.4a8.724,8.724,0,0,0-7.29-4.2" transform="translate(-73.8 -308.2)"/><path class="c" d="M111.6,361.171a2.4,2.4,0,0,0,.258.129,7.66,7.66,0,0,1,4.559,7.7,7.75,7.75,0,0,1-11.849,5.951c-.258-.155-.386-.155-.592.077a3.392,3.392,0,0,1-2.421,1.056,10.2,10.2,0,0,0-.258-5.41,7.224,7.224,0,0,1-.335-3.143,8.147,8.147,0,0,1,2.344-4.766,7.92,7.92,0,0,1,8.295-1.6m-6.9,7.882a4.044,4.044,0,0,0,7.986-1.288v-.077a4.051,4.051,0,1,0-7.986,1.365" transform="translate(-93.926 -347.132)"/><path class="d" d="M150.313,362.364a8.312,8.312,0,0,1,4.328-3.091,7.31,7.31,0,0,1,3.168-.155,10.056,10.056,0,0,0,5.384-.618,3.441,3.441,0,0,1-.67,2.55c-.18.258-.18.361.026.592a7.757,7.757,0,0,1-4.018,12.648,7.678,7.678,0,0,1-8.32-3.3l-.155-.232a7.858,7.858,0,0,1,.258-8.4m2.4,4.4a4.032,4.032,0,1,0,8.063.18v-.129a4.032,4.032,0,0,0-8.063-.052" transform="translate(-129.602 -345.543)"/></g></g></g></svg>