<svg xmlns="http://www.w3.org/2000/svg" width="33.338" height="39.427" viewBox="0 0 33.338 39.427"><defs><style>.a{fill:#397e31;}.b{fill:#f1f2f4;}.c{fill:#e7253a;}.d{fill:#fffffd;}</style></defs><g transform="translate(-69.261 -132.556)"><path class="a" d="M78.307,171.3c-.052,0-.078,0-.078,0l-.647-.044,0-.648c0-.318.012-.632.02-.935.042-1.625.078-3.029-.623-3.749a3.3,3.3,0,0,0-2.413-.686,4.251,4.251,0,0,1-3.945-2.749,7.313,7.313,0,0,1-.671-3.1V133.242H95.113a6.171,6.171,0,0,1,5.19,3.033,9.583,9.583,0,0,1,1.61,5.374V165.23l-.685,0s-1.856.005-4.578.005c-1.36,0-2.938,0-4.608-.005H92a15.358,15.358,0,0,0-2.326.172,10.3,10.3,0,0,0-5.607,2.843c-2.991,2.9-5.328,3.049-5.765,3.049"/><path class="b" d="M95.113,133.928a5.527,5.527,0,0,1,4.621,2.73,8.941,8.941,0,0,1,1.492,4.991v22.9s-1.855,0-4.576,0c-1.36,0-2.937,0-4.607,0H92a15.958,15.958,0,0,0-2.429.18,11.032,11.032,0,0,0-5.98,3.028c-2.834,2.749-4.973,2.856-5.287,2.856h-.04c.035-3.235.564-6.063-3.7-6.063a3.634,3.634,0,0,1-3.324-2.355,6.591,6.591,0,0,1-.606-2.8v-25.46H95.113m0-1.372H69.261v26.832A7.884,7.884,0,0,0,70,162.775a4.956,4.956,0,0,0,4.566,3.144,2.965,2.965,0,0,1,1.921.479c.5.511.465,1.843.428,3.252-.008.305-.016.621-.019.944l-.014,1.292,1.311.094s.039,0,.116,0c.68,0,3.141-.234,6.243-3.243a9.612,9.612,0,0,1,5.234-2.657A14.606,14.606,0,0,1,92,165.919h.037c1.48,0,3.031,0,4.61,0,2.692,0,4.562,0,4.58,0l1.369,0V141.649a10.27,10.27,0,0,0-1.726-5.757,6.827,6.827,0,0,0-5.76-3.336"/><path class="c" d="M83.306,143.729c.066.033.129.069.2.1a6.107,6.107,0,0,1,3.63,6.121,6.172,6.172,0,0,1-9.433,4.732c-.208-.13-.307-.121-.475.06a2.768,2.768,0,0,1-1.929.847,8.076,8.076,0,0,0-.2-4.3,5.853,5.853,0,0,1-.267-2.507,6.515,6.515,0,0,1,1.874-3.791,6.307,6.307,0,0,1,6.6-1.259M77.818,150a3.214,3.214,0,1,0,6.339-1.066A3.214,3.214,0,0,0,77.818,150"/><path class="d" d="M85.735,145.933a6.511,6.511,0,0,1,3.448-2.448,5.853,5.853,0,0,1,2.518-.131,8.077,8.077,0,0,0,4.281-.483,2.769,2.769,0,0,1-.534,2.038c-.151.2-.144.294.017.479a6.172,6.172,0,0,1-3.189,10.06,6.1,6.1,0,0,1-6.616-2.621c-.041-.06-.086-.118-.13-.177a6.308,6.308,0,0,1,.205-6.717m1.9,3.5a3.211,3.211,0,1,0,6.421.036,3.211,3.211,0,0,0-6.421-.036"/></g></svg>